<?xml version="1.0" standalone="no"?><!DOCTYPE svg PUBLIC "-//W3C//DTD SVG 1.1//EN" "http://www.w3.org/Graphics/SVG/1.1/DTD/svg11.dtd"><svg t="1566269625866" class="icon" viewBox="0 0 1024 1024" version="1.1" xmlns="http://www.w3.org/2000/svg" p-id="9483" width="20" height="20" xmlns:xlink="http://www.w3.org/1999/xlink"><defs><style type="text/css"></style></defs><path d="M355.724278 427.392988l-63.856053 63.856053 182.468445 182.468445 406.39365-406.416229-63.856053-63.856053-342.537597 342.537596z" p-id="9484" fill="#8a8a8a"></path><path d="M790.478324 459.321014v312.325645a18.876825 18.876825 0 0 1-18.854245 18.831665H252.353341a18.876825 18.876825 0 0 1-18.854245-18.831665V252.353341c0-10.38677 8.444895-18.831665 18.854245-18.831665h380.065446v-90.319736H252.353341a109.28688 109.28688 0 0 0-109.17398 109.151401v519.293318a109.28688 109.28688 0 0 0 109.17398 109.151401h519.270738a109.28688 109.28688 0 0 0 109.173981-109.151401V459.321014h-90.319736z" p-id="9485" fill="#8a8a8a"></path></svg>